<?xml version="1.0" encoding="UTF-8" standalone="no"?>
<svg
   xmlns:dc="http://purl.org/dc/elements/1.1/"
   xmlns:cc="http://creativecommons.org/ns#"
   xmlns:rdf="http://www.w3.org/1999/02/22-rdf-syntax-ns#"
   xmlns:svg="http://www.w3.org/2000/svg"
   xmlns="http://www.w3.org/2000/svg"
   xmlns:sodipodi="http://sodipodi.sourceforge.net/DTD/sodipodi-0.dtd"
   xmlns:inkscape="http://www.inkscape.org/namespaces/inkscape"
   id="svg"
   version="1.1"
   width="100"
   height="100"
   viewBox="0 0 100 100"
   sodipodi:docname="Artfol.svg"
   inkscape:version="1.0.1 (3bc2e813f5, 2020-09-07)">
  <metadata
     id="metadata10">
    <rdf:RDF>
      <cc:Work
         rdf:about="">
        <dc:format>image/svg+xml</dc:format>
        <dc:type
           rdf:resource="http://purl.org/dc/dcmitype/StillImage" />
        <dc:title></dc:title>
      </cc:Work>
    </rdf:RDF>
  </metadata>
  <defs
     id="defs8" />
  <sodipodi:namedview
     pagecolor="#ffffff"
     bordercolor="#666666"
     borderopacity="1"
     objecttolerance="10"
     gridtolerance="10"
     guidetolerance="10"
     inkscape:pageopacity="0"
     inkscape:pageshadow="2"
     inkscape:window-width="1366"
     inkscape:window-height="745"
     id="namedview6"
     showgrid="false"
     inkscape:pagecheckerboard="true"
     inkscape:zoom="4.0870772"
     inkscape:cx="55.553094"
     inkscape:cy="52.96658"
     inkscape:window-x="-8"
     inkscape:window-y="-8"
     inkscape:window-maximized="1"
     inkscape:current-layer="svg" />
  <path
     id="path837"
     style="fill:#ff99cc;fill-opacity:1;stroke-width:2.93813;stroke-linecap:round;stroke-linejoin:round;paint-order:stroke markers fill"
     d="M 49.947266 0 A 50 50 0 0 0 0 50 A 50 50 0 0 0 50 100 A 50 50 0 0 0 100 50 A 50 50 0 0 0 50 0 A 50 50 0 0 0 49.947266 0 z M 50.191406 17.503906 C 56.63306 17.548172 63.296598 19.662644 68.568359 23.40625 L 69.583984 24.126953 L 69.992188 23.771484 C 70.21687 23.575342 70.832907 23.035966 71.361328 22.574219 C 74.314698 19.994382 76.365704 18.945027 77.072266 19.650391 L 77.382812 19.960938 L 77.333984 20.808594 C 77.259172 22.104883 76.575237 24.001342 74.910156 27.535156 L 74.394531 28.630859 L 74.654297 28.951172 C 77.676223 32.671383 79.760178 36.538368 80.962891 40.662109 C 83.183667 48.276689 82.455686 56.944708 79.023438 63.761719 C 78.515028 64.771918 78.3445 63.911784 80.591797 71.675781 C 82.480531 78.200706 82.553019 78.489211 82.511719 79.152344 C 82.410385 80.786452 81.046556 82.015233 79.457031 81.904297 C 79.086241 81.878558 76.483647 81.172682 72.380859 79.986328 C 68.810746 78.954153 65.772519 78.085351 65.628906 78.056641 C 65.437246 78.018414 65.058814 78.160126 64.203125 78.587891 C 58.444506 81.466814 49.988916 82.799736 48.087891 81.128906 C 46.803365 79.999517 46.711228 78.022682 47.888672 76.830078 C 48.624258 76.084984 49.014865 75.955934 50.820312 75.865234 C 55.252362 75.642354 58.652186 74.749929 62.207031 72.876953 C 62.879075 72.522894 63.597319 72.146955 63.802734 72.041016 C 64.714966 71.569519 64.998355 71.616803 70.257812 73.136719 C 72.884921 73.896051 75.058841 74.494074 75.087891 74.464844 C 75.116914 74.435859 74.527396 72.315298 73.779297 69.751953 C 72.510526 65.403585 72.420328 65.037444 72.423828 64.287109 L 72.427734 63.482422 L 73.171875 62.041016 C 77.663232 53.341034 77.232965 43.450829 72.019531 35.492188 C 71.623716 34.888269 71.282776 34.394531 71.259766 34.394531 C 71.236754 34.394531 70.700118 35.262097 70.068359 36.322266 C 63.202104 47.847198 52.876641 62.350009 48.605469 66.46875 C 46.173765 68.813469 45.01138 69.083965 43.392578 67.677734 C 43.070071 67.397636 42.320285 66.850933 41.726562 66.462891 C 39.757236 65.175351 39.444631 64.297728 40.158203 62.064453 C 41.866815 56.718882 53.157798 41.478081 64.302734 29.472656 C 64.836913 28.896971 65.232221 28.396105 65.181641 28.359375 C 63.014651 26.786987 59.721167 25.217612 57.041016 24.478516 C 45.961636 21.42344 34.204438 25.921184 27.951172 35.609375 C 22.748755 43.669955 22.464549 54.356794 27.234375 62.582031 C 28.386571 64.568693 28.326294 64.429474 28.371094 65.28125 C 28.553732 68.760093 24.471165 69.594894 22.537109 66.474609 C 10.001563 46.247934 23.531804 19.710881 47.449219 17.613281 C 48.355726 17.533794 49.27117 17.497583 50.191406 17.503906 z M 47.857422 27.513672 C 50.082083 27.377069 52.326817 29.17322 52.501953 31.486328 C 52.807695 35.522366 47.970222 37.765593 45.117188 34.910156 C 42.80683 32.597674 43.768339 28.730541 46.912109 27.693359 C 47.223014 27.590791 47.539613 27.533187 47.857422 27.513672 z M 34.914062 35.689453 C 38.104175 35.538274 40.492359 38.951403 39.013672 41.939453 C 37.13642 45.732368 31.498959 44.839524 30.826172 40.642578 C 30.477143 38.466767 32.078116 36.198546 34.265625 35.769531 C 34.484504 35.726602 34.701388 35.699532 34.914062 35.689453 z M 32.292969 51.160156 C 33.826999 51.251736 35.344246 52.172518 36.011719 53.570312 C 37.785142 57.284279 34.00563 61.114108 30.275391 59.382812 C 26.751819 57.747207 27.074735 52.638224 30.783203 51.357422 C 31.266967 51.190389 31.781625 51.12963 32.292969 51.160156 z M 36.773438 67.662109 C 38.8863 67.798068 41.018667 68.911354 42.427734 70.724609 C 45.225222 74.324636 43.692539 79.707791 39.412109 81.316406 C 35.782198 82.68041 29.17979 81.964792 23.480469 79.589844 C 22.552471 79.203055 22.463216 79.326731 24.6875 77.863281 C 27.381162 76.091 27.962794 75.452426 28.974609 73.148438 C 30.227364 70.295498 32.101987 68.565149 34.695312 67.863281 C 35.367352 67.681382 36.06915 67.61679 36.773438 67.662109 z " />
</svg>
