<?xml version="1.0" encoding="UTF-8" standalone="no"?>
<svg
   xmlns:dc="http://purl.org/dc/elements/1.1/"
   xmlns:cc="http://creativecommons.org/ns#"
   xmlns:rdf="http://www.w3.org/1999/02/22-rdf-syntax-ns#"
   xmlns:svg="http://www.w3.org/2000/svg"
   xmlns="http://www.w3.org/2000/svg"
   xmlns:sodipodi="http://sodipodi.sourceforge.net/DTD/sodipodi-0.dtd"
   xmlns:inkscape="http://www.inkscape.org/namespaces/inkscape"
   id="svg4776"
   sodipodi:docname="Email.svg"
   viewBox="0 0 100 100"
   version="1.1"
   inkscape:version="1.0.1 (3bc2e813f5, 2020-09-07)"
   width="100"
   height="100">
  <defs
     id="defs16" />
  <sodipodi:namedview
     id="base"
     bordercolor="#666666"
     inkscape:pageshadow="2"
     inkscape:window-y="-8"
     pagecolor="#ffffff"
     inkscape:window-height="745"
     inkscape:window-maximized="1"
     inkscape:zoom="5.6"
     inkscape:window-x="-8"
     showgrid="false"
     borderopacity="1.0"
     inkscape:current-layer="layer1"
     inkscape:cx="46.433576"
     inkscape:cy="49.98891"
     inkscape:window-width="1366"
     inkscape:pageopacity="0.0"
     inkscape:document-units="px"
     inkscape:document-rotation="0"
     fit-margin-top="0"
     fit-margin-left="0"
     fit-margin-right="0"
     fit-margin-bottom="0"
     inkscape:pagecheckerboard="true" />
  <g
     id="layer1"
     inkscape:label="Layer 1"
     inkscape:groupmode="layer"
     transform="translate(-238.08228,-382.36987)">
    <path
       id="path3794"
       style="color:#000000;fill:#ff99cc;fill-opacity:1;stroke-width:0.348544"
       d="m 288.08194,382.36987 a 49.999902,49.999977 0 0 0 -49.99966,49.99966 49.999902,49.999977 0 0 0 49.99966,50.00034 49.999902,49.999977 0 0 0 50.00034,-50.00034 49.999902,49.999977 0 0 0 -50.00034,-49.99966 z m -28.06516,27.86109 h 56.13168 c 1.37003,-9e-5 2.49351,1.1201 2.49351,2.49094 v 39.29322 c 6.7e-4,1.37128 -1.12162,2.49582 -2.49351,2.4957 h -56.13168 c -1.37176,1.2e-4 -2.49421,-1.12456 -2.49352,-2.4957 V 412.7219 c -1.3e-4,-1.37086 1.12349,-2.49103 2.49352,-2.49094 z m 6.64461,5.96898 21.41578,18.70817 21.41102,-18.70817 z m 46.99423,2.97972 -15.65816,13.68002 15.65816,13.95846 z m -51.146,0.0156 v 27.75762 l 15.72283,-14.01769 z m 31.7057,16.96881 -4.50303,3.9362 c -0.93625,0.81723 -2.34433,0.81728 -3.28044,0 l -4.41454,-3.85859 -14.80997,13.20485 h 41.90373 z" />
  </g>
  <metadata
     id="metadata14">
    <rdf:RDF>
      <cc:Work>
        <dc:format>image/svg+xml</dc:format>
        <dc:type
           rdf:resource="http://purl.org/dc/dcmitype/StillImage" />
        <cc:license
           rdf:resource="http://creativecommons.org/publicdomain/zero/1.0/" />
        <dc:publisher>
          <cc:Agent
             rdf:about="http://openclipart.org/">
            <dc:title>Rygle</dc:title>
          </cc:Agent>
        </dc:publisher>
        <dc:title></dc:title>
        <dc:date>2015-03-29</dc:date>
        <dc:description />
        <dc:source />
        <dc:creator>
          <cc:Agent>
            <dc:title>Rygle</dc:title>
          </cc:Agent>
        </dc:creator>
        <dc:subject>
          <rdf:Bag>
            <rdf:li>icon</rdf:li>
            <rdf:li>mail</rdf:li>
            <rdf:li>snail</rdf:li>
            <rdf:li>communication</rdf:li>
            <rdf:li>communicate</rdf:li>
            <rdf:li>address</rdf:li>
            <rdf:li>envelope</rdf:li>
          </rdf:Bag>
        </dc:subject>
        <dc:rights>
          <cc:Agent>
            <dc:title>Public Domain</dc:title>
          </cc:Agent>
        </dc:rights>
      </cc:Work>
      <cc:License
         rdf:about="http://creativecommons.org/publicdomain/zero/1.0/">
        <cc:permits
           rdf:resource="http://creativecommons.org/ns#Reproduction" />
        <cc:permits
           rdf:resource="http://creativecommons.org/ns#Distribution" />
        <cc:permits
           rdf:resource="http://creativecommons.org/ns#DerivativeWorks" />
      </cc:License>
    </rdf:RDF>
  </metadata>
</svg>
