<?xml version="1.0" encoding="UTF-8" standalone="no"?>
<svg
   xmlns:dc="http://purl.org/dc/elements/1.1/"
   xmlns:cc="http://creativecommons.org/ns#"
   xmlns:rdf="http://www.w3.org/1999/02/22-rdf-syntax-ns#"
   xmlns:svg="http://www.w3.org/2000/svg"
   xmlns="http://www.w3.org/2000/svg"
   xmlns:sodipodi="http://sodipodi.sourceforge.net/DTD/sodipodi-0.dtd"
   xmlns:inkscape="http://www.inkscape.org/namespaces/inkscape"
   id="svg4776"
   sodipodi:docname="Email.svg"
   viewBox="0 0 286.91547 286.90027"
   version="1.1"
   inkscape:version="1.0.1 (3bc2e813f5, 2020-09-07)"
   width="286.91547"
   height="286.90027">
  <defs
     id="defs16" />
  <sodipodi:namedview
     id="base"
     bordercolor="#666666"
     inkscape:pageshadow="2"
     inkscape:window-y="-8"
     pagecolor="#ffffff"
     inkscape:window-height="745"
     inkscape:window-maximized="1"
     inkscape:zoom="2.8"
     inkscape:window-x="-8"
     showgrid="false"
     borderopacity="1.0"
     inkscape:current-layer="layer1"
     inkscape:cx="177.66387"
     inkscape:cy="122.72058"
     inkscape:window-width="1366"
     inkscape:pageopacity="0.0"
     inkscape:document-units="px"
     inkscape:document-rotation="0"
     fit-margin-top="0"
     fit-margin-left="0"
     fit-margin-right="0"
     fit-margin-bottom="0"
     inkscape:pagecheckerboard="true" />
  <g
     id="layer1"
     inkscape:label="Layer 1"
     inkscape:groupmode="layer"
     transform="translate(-238.08228,-382.36987)">
    <path
       id="path3794"
       style="color:#000000;fill:#ff99cc;fill-opacity:1"
       d="M 143.45703 0 A 143.45773 143.45013 0 0 0 0 143.44922 A 143.45773 143.45013 0 0 0 143.45703 286.90039 A 143.45773 143.45013 0 0 0 286.91602 143.44922 A 143.45773 143.45013 0 0 0 143.45703 0 z M 62.933594 79.933594 L 223.98438 79.933594 C 227.9152 79.933324 231.13867 83.147148 231.13867 87.080078 L 231.13867 199.8125 C 231.14058 203.74669 227.92055 206.973 223.98438 206.97266 L 62.933594 206.97266 C 58.997804 206.973 55.777297 203.7463 55.779297 199.8125 L 55.779297 87.080078 C 55.778917 83.147078 59.002764 79.933324 62.933594 79.933594 z M 81.998047 97.058594 L 143.44336 150.73242 L 204.875 97.058594 L 81.998047 97.058594 z M 216.83203 105.60742 L 171.90625 144.85547 L 216.83203 184.90234 L 216.83203 105.60742 z M 70.085938 105.65234 L 70.085938 185.28906 L 115.19727 145.07227 L 70.085938 105.65234 z M 161.05469 154.33594 L 148.13477 165.62891 C 145.44853 167.97354 141.40851 167.97369 138.72266 165.62891 L 126.05664 154.55859 L 83.564453 192.44336 L 203.79297 192.44336 L 161.05469 154.33594 z "
       transform="translate(238.08228,382.36987)" />
  </g>
  <metadata
     id="metadata14">
    <rdf:RDF>
      <cc:Work>
        <dc:format>image/svg+xml</dc:format>
        <dc:type
           rdf:resource="http://purl.org/dc/dcmitype/StillImage" />
        <cc:license
           rdf:resource="http://creativecommons.org/publicdomain/zero/1.0/" />
        <dc:publisher>
          <cc:Agent
             rdf:about="http://openclipart.org/">
            <dc:title>Rygle</dc:title>
          </cc:Agent>
        </dc:publisher>
        <dc:title />
        <dc:date>2015-03-29</dc:date>
        <dc:description />
        <dc:source />
        <dc:creator>
          <cc:Agent>
            <dc:title>Rygle</dc:title>
          </cc:Agent>
        </dc:creator>
        <dc:subject>
          <rdf:Bag>
            <rdf:li>icon</rdf:li>
            <rdf:li>mail</rdf:li>
            <rdf:li>snail</rdf:li>
            <rdf:li>communication</rdf:li>
            <rdf:li>communicate</rdf:li>
            <rdf:li>address</rdf:li>
            <rdf:li>envelope</rdf:li>
          </rdf:Bag>
        </dc:subject>
        <dc:rights>
          <cc:Agent>
            <dc:title>Public Domain</dc:title>
          </cc:Agent>
        </dc:rights>
      </cc:Work>
      <cc:License
         rdf:about="http://creativecommons.org/publicdomain/zero/1.0/">
        <cc:permits
           rdf:resource="http://creativecommons.org/ns#Reproduction" />
        <cc:permits
           rdf:resource="http://creativecommons.org/ns#Distribution" />
        <cc:permits
           rdf:resource="http://creativecommons.org/ns#DerivativeWorks" />
      </cc:License>
    </rdf:RDF>
  </metadata>
</svg>
