<?xml version="1.0" encoding="UTF-8" standalone="no"?>
<svg
   xmlns:dc="http://purl.org/dc/elements/1.1/"
   xmlns:cc="http://creativecommons.org/ns#"
   xmlns:rdf="http://www.w3.org/1999/02/22-rdf-syntax-ns#"
   xmlns:svg="http://www.w3.org/2000/svg"
   xmlns="http://www.w3.org/2000/svg"
   xmlns:sodipodi="http://sodipodi.sourceforge.net/DTD/sodipodi-0.dtd"
   xmlns:inkscape="http://www.inkscape.org/namespaces/inkscape"
   width="100"
   height="100"
   viewBox="0 0 100 100"
   fill="none"
   version="1.1"
   id="svg4"
   sodipodi:docname="Github.svg"
   inkscape:version="1.0.1 (3bc2e813f5, 2020-09-07)">
  <metadata
     id="metadata10">
    <rdf:RDF>
      <cc:Work
         rdf:about="">
        <dc:format>image/svg+xml</dc:format>
        <dc:type
           rdf:resource="http://purl.org/dc/dcmitype/StillImage" />
        <dc:title></dc:title>
      </cc:Work>
    </rdf:RDF>
  </metadata>
  <defs
     id="defs8" />
  <sodipodi:namedview
     pagecolor="#ffffff"
     bordercolor="#666666"
     borderopacity="1"
     objecttolerance="10"
     gridtolerance="10"
     guidetolerance="10"
     inkscape:pageopacity="0"
     inkscape:pageshadow="2"
     inkscape:window-width="1366"
     inkscape:window-height="745"
     id="namedview6"
     showgrid="false"
     inkscape:zoom="4.515625"
     inkscape:cx="34.928758"
     inkscape:cy="52.193327"
     inkscape:window-x="-8"
     inkscape:window-y="-8"
     inkscape:window-maximized="1"
     inkscape:current-layer="svg4"
     inkscape:document-rotation="0"
     inkscape:pagecheckerboard="true" />
  <path
     fill-rule="evenodd"
     clip-rule="evenodd"
     d="M 50,0 C 22.375,0 0,22.94095 0,51.264692 c 0,22.684626 14.3125,41.844805 34.1875,48.637377 2.5,0.448561 3.4375,-1.089375 3.4375,-2.435073 0,-1.217536 -0.0625,-5.254631 -0.0625,-9.548049 C 25,90.289939 21.75,84.778985 20.75,81.895346 c -0.5625,-1.47386 -3,-6.023602 -5.125,-7.241138 -1.75,-0.961213 -4.25,-3.332205 -0.0625,-3.396286 3.9375,-0.06408 6.75,3.71669 7.6875,5.254631 4.5,7.753785 11.6875,5.575035 14.5625,4.229337 C 38.25,77.409685 39.5625,75.166855 41,73.885238 29.875,72.60362 18.25,68.182041 18.25,48.573296 c 0,-5.575035 1.9375,-10.188858 5.125,-13.777386 -0.5,-1.281618 -2.25,-6.536248 0.5,-13.585144 0,0 4.1875,-1.345698 13.75,5.254631 4,-1.153455 8.25,-1.730183 12.5,-1.730183 4.25,0 8.5,0.576728 12.5,1.730183 9.5625,-6.66441 13.75,-5.254631 13.75,-5.254631 2.75,7.048896 1,12.303526 0.5,13.585144 C 80.0625,38.384438 82,42.93418 82,48.573296 82,68.246121 70.3125,72.60362 59.1875,73.885238 c 1.8125,1.602021 3.375,4.677903 3.375,9.483968 0,6.856652 -0.0625,12.367607 -0.0625,14.09779 0,1.345698 0.9375,2.947724 3.4375,2.435073 C 85.6875,93.109497 100,73.885238 100,51.264692 100,22.94095 77.625,0 50,0 Z"
     fill="#1B1F23"
     id="path2"
     style="fill:#ff99cc;fill-opacity:1;stroke-width:6.32855" />
</svg>
