<?xml version="1.0" encoding="UTF-8" standalone="no"?>
<svg
   xmlns:dc="http://purl.org/dc/elements/1.1/"
   xmlns:cc="http://creativecommons.org/ns#"
   xmlns:rdf="http://www.w3.org/1999/02/22-rdf-syntax-ns#"
   xmlns:svg="http://www.w3.org/2000/svg"
   xmlns="http://www.w3.org/2000/svg"
   xmlns:sodipodi="http://sodipodi.sourceforge.net/DTD/sodipodi-0.dtd"
   xmlns:inkscape="http://www.inkscape.org/namespaces/inkscape"
   version="1.1"
   id="Layer_1"
   x="0px"
   y="0px"
   viewBox="0 0 595 595"
   xml:space="preserve"
   sodipodi:docname="Instagram.svg"
   inkscape:version="1.0.1 (3bc2e813f5, 2020-09-07)"
   width="595"
   height="595"><metadata
   id="metadata13"><rdf:RDF><cc:Work
       rdf:about=""><dc:format>image/svg+xml</dc:format><dc:type
         rdf:resource="http://purl.org/dc/dcmitype/StillImage" /><dc:title /></cc:Work></rdf:RDF></metadata><defs
   id="defs11" /><sodipodi:namedview
   pagecolor="#ffffff"
   bordercolor="#666666"
   borderopacity="1"
   objecttolerance="10"
   gridtolerance="10"
   guidetolerance="10"
   inkscape:pageopacity="0"
   inkscape:pageshadow="2"
   inkscape:window-width="1366"
   inkscape:window-height="745"
   id="namedview9"
   showgrid="false"
   inkscape:zoom="0.96333333"
   inkscape:cx="297.5"
   inkscape:cy="297.5"
   inkscape:window-x="-8"
   inkscape:window-y="-8"
   inkscape:window-maximized="1"
   inkscape:current-layer="Layer_1"
   fit-margin-top="0"
   fit-margin-left="0"
   fit-margin-right="0"
   fit-margin-bottom="0"
   inkscape:document-rotation="0"
   inkscape:pagecheckerboard="true" />
<style
   type="text/css"
   id="style2">
	.st0{fill:#F1615F;}
	.st1{fill:#FFFFFF;}
</style>
<path
   id="circle4"
   style="fill:#ff99cc;fill-opacity:1"
   d="M 297.21484 0 A 297.5 297.5 0 0 0 0 297.5 A 297.5 297.5 0 0 0 297.5 595 A 297.5 297.5 0 0 0 595 297.5 A 297.5 297.5 0 0 0 297.5 0 A 297.5 297.5 0 0 0 297.21484 0 z M 297.5 121 C 345.4 121 351.39922 121.19961 370.19922 122.09961 C 388.99922 122.99961 401.79961 125.90078 413.09961 130.30078 C 424.79961 134.90078 434.60039 140.89922 444.40039 150.69922 C 454.20039 160.49922 460.30078 170.4 464.80078 182 C 469.10078 193.2 472.1 206.00078 473 224.80078 C 473.9 243.70078 474.09961 249.69961 474.09961 297.59961 C 474.09961 345.59961 473.8 351.60039 473 370.40039 C 472.1 389.20039 469.10078 401.99922 464.80078 413.19922 C 460.20078 424.79922 454.20039 434.7 444.40039 444.5 C 434.60039 454.3 424.79922 460.40039 413.19922 464.90039 C 401.89922 469.30039 389.10078 472.19961 370.30078 473.09961 C 351.40078 473.99961 345.4 474.19922 297.5 474.19922 C 249.5 474.19922 243.49922 473.99961 224.69922 473.09961 C 205.99922 472.19961 193.10039 469.30039 181.90039 464.90039 C 170.30039 460.40039 160.39961 454.3 150.59961 444.5 C 140.69961 434.7 134.69922 424.79922 130.19922 413.19922 C 125.79922 401.99922 122.9 389.20039 122 370.40039 C 121.1 351.50039 120.90039 345.49961 120.90039 297.59961 C 120.90039 249.59961 121.2 243.60078 122 224.80078 C 122.8 206.10078 125.79922 193.2 130.19922 182 C 134.79922 170.4 140.79961 160.49922 150.59961 150.69922 C 160.39961 140.79922 170.30039 134.80078 181.90039 130.30078 C 193.10039 125.90078 205.89922 122.99961 224.69922 122.09961 C 243.49922 121.19961 249.6 121 297.5 121 z M 281.69922 152.80078 C 248.79922 152.80078 242.49922 153.00078 226.19922 153.80078 C 208.99922 154.60078 199.60039 157.50039 193.40039 159.90039 C 185.20039 163.10039 179.29961 166.89961 173.09961 173.09961 C 166.89961 179.29961 163.10039 185.20039 159.90039 193.40039 C 157.50039 199.70039 154.60078 208.99922 153.80078 226.19922 C 153.00078 244.79922 152.80078 250.4 152.80078 297.5 C 152.80078 344.6 153.00078 350.20078 153.80078 368.80078 C 154.60078 386.00078 157.50039 395.39961 159.90039 401.59961 C 163.10039 409.79961 166.89961 415.70039 173.09961 421.90039 C 179.29961 428.10039 185.20039 431.89961 193.40039 435.09961 C 199.70039 437.49961 208.99922 440.39922 226.19922 441.19922 C 244.79922 441.99922 250.4 442.19922 297.5 442.19922 C 344.6 442.19922 350.20078 441.99922 368.80078 441.19922 C 386.00078 440.39922 395.39961 437.49961 401.59961 435.09961 C 409.89961 431.89961 415.70039 428.10039 421.90039 421.90039 C 428.10039 415.70039 431.89961 409.79961 435.09961 401.59961 C 437.49961 395.29961 440.39922 386.00078 441.19922 368.80078 C 441.99922 350.20078 442.19922 344.6 442.19922 297.5 C 442.19922 250.4 441.99922 244.79922 441.19922 226.19922 C 440.39922 208.99922 437.49961 199.60039 435.09961 193.40039 C 431.89961 185.20039 428.10039 179.29961 421.90039 173.09961 C 415.70039 166.89961 409.79961 163.10039 401.59961 159.90039 C 395.29961 157.50039 386.00078 154.60078 368.80078 153.80078 C 350.20078 153.00078 344.6 152.80078 297.5 152.80078 L 281.69922 152.80078 z M 391.69922 182.09961 C 403.39922 182.09961 412.90039 191.60078 412.90039 203.30078 C 412.90039 215.00078 403.39922 224.5 391.69922 224.5 C 379.99922 224.5 370.5 215.00078 370.5 203.30078 C 370.5 191.60078 379.99922 182.09961 391.69922 182.09961 z M 297.5 206.90039 C 347.6 206.90039 388.09961 247.4 388.09961 297.5 C 388.09961 347.5 347.6 388.09961 297.5 388.09961 C 247.5 388.09961 206.90039 347.6 206.90039 297.5 C 206.90039 247.5 247.4 206.90039 297.5 206.90039 z M 297.5 238.69922 C 265 238.69922 238.69922 265 238.69922 297.5 C 238.69922 330 265 356.30078 297.5 356.30078 C 330 356.30078 356.30078 330 356.30078 297.5 C 356.30078 265 330 238.69922 297.5 238.69922 z " />

</svg>
