<?xml version="1.0" encoding="UTF-8" standalone="no"?>
<svg
   xmlns:dc="http://purl.org/dc/elements/1.1/"
   xmlns:cc="http://creativecommons.org/ns#"
   xmlns:rdf="http://www.w3.org/1999/02/22-rdf-syntax-ns#"
   xmlns:svg="http://www.w3.org/2000/svg"
   xmlns="http://www.w3.org/2000/svg"
   xmlns:sodipodi="http://sodipodi.sourceforge.net/DTD/sodipodi-0.dtd"
   xmlns:inkscape="http://www.inkscape.org/namespaces/inkscape"
   version="1.1"
   id="Layer_1"
   x="0px"
   y="0px"
   viewBox="0 0 100 100"
   xml:space="preserve"
   sodipodi:docname="Instagram.svg"
   inkscape:version="1.0.1 (3bc2e813f5, 2020-09-07)"
   width="100"
   height="100"><metadata
   id="metadata13"><rdf:RDF><cc:Work
       rdf:about=""><dc:format>image/svg+xml</dc:format><dc:type
         rdf:resource="http://purl.org/dc/dcmitype/StillImage" /><dc:title /></cc:Work></rdf:RDF></metadata><defs
   id="defs11" /><sodipodi:namedview
   pagecolor="#ffffff"
   bordercolor="#666666"
   borderopacity="1"
   objecttolerance="10"
   gridtolerance="10"
   guidetolerance="10"
   inkscape:pageopacity="0"
   inkscape:pageshadow="2"
   inkscape:window-width="1366"
   inkscape:window-height="745"
   id="namedview9"
   showgrid="false"
   inkscape:zoom="5.4494362"
   inkscape:cx="40.567079"
   inkscape:cy="49.158505"
   inkscape:window-x="-8"
   inkscape:window-y="-8"
   inkscape:window-maximized="1"
   inkscape:current-layer="Layer_1"
   fit-margin-top="0"
   fit-margin-left="0"
   fit-margin-right="0"
   fit-margin-bottom="0"
   inkscape:document-rotation="0"
   inkscape:pagecheckerboard="true" />
<style
   type="text/css"
   id="style2">
	.st0{fill:#F1615F;}
	.st1{fill:#FFFFFF;}
</style>
<path
   id="circle4"
   style="fill:#ff99cc;fill-opacity:1;stroke-width:0.168067"
   d="M 49.952074,5.7432122e-6 A 50,49.999997 0 0 0 0,50.000003 50,49.999997 0 0 0 50,100 50,49.999997 0 0 0 100,50.000003 50,49.999997 0 0 0 50,5.7432122e-6 a 50,49.999997 0 0 0 -0.04793,0 z M 50,20.336139 c 8.05042,0 9.058692,0.03355 12.218356,0.184808 3.159664,0.151261 5.31099,0.638852 7.21015,1.378348 1.966386,0.773109 3.613576,1.78125 5.260635,3.428309 1.647059,1.647059 2.672335,3.311055 3.428637,5.260635 0.722689,1.882353 1.22676,4.033744 1.37802,7.193408 0.151261,3.176471 0.184809,4.184677 0.184809,12.235097 0,8.067226 -0.05035,9.075761 -0.184809,12.235424 -0.15126,3.159664 -0.655331,5.310728 -1.37802,7.193081 -0.773109,1.949579 -1.781578,3.613576 -3.428637,5.260635 -1.647059,1.647058 -3.294314,2.672334 -5.243894,3.428636 -1.89916,0.739496 -4.050158,1.22676 -7.209822,1.378021 -3.17647,0.15126 -4.185005,0.184808 -12.235425,0.184808 -8.067227,0 -9.075761,-0.03355 -12.235425,-0.184808 -3.142857,-0.151261 -5.310728,-0.638525 -7.193081,-1.378021 -1.94958,-0.756302 -3.613576,-1.781578 -5.260635,-3.428636 -1.663866,-1.647059 -2.672335,-3.311056 -3.428637,-5.260635 -0.739496,-1.882353 -1.22676,-4.033417 -1.37802,-7.193081 -0.151261,-3.17647 -0.184809,-4.185004 -0.184809,-12.235424 0,-8.067227 0.05035,-9.075433 0.184809,-12.235097 0.134453,-3.142857 0.638524,-5.311055 1.37802,-7.193408 0.773109,-1.94958 1.781578,-3.613576 3.428637,-5.260635 1.647059,-1.663865 3.311055,-2.672006 5.260635,-3.428309 1.882353,-0.739496 4.033417,-1.227087 7.193081,-1.378348 C 40.924239,20.369687 41.94958,20.336139 50,20.336139 Z m -2.655593,5.344668 c -5.529412,0 -6.588236,0.03361 -9.327731,0.168068 -2.890757,0.134453 -4.470392,0.621783 -5.512409,1.025144 -1.378151,0.537815 -2.369879,1.17634 -3.411896,2.218356 -1.042016,1.042017 -1.680541,2.033745 -2.218356,3.411896 -0.403361,1.058823 -0.890691,2.621652 -1.025144,5.512408 -0.134454,3.12605 -0.168068,4.067358 -0.168068,11.983324 0,7.915966 0.03361,8.857273 0.168068,11.983323 0.134453,2.890757 0.621783,4.470392 1.025144,5.512408 0.537815,1.378152 1.17634,2.369879 2.218356,3.411896 1.042017,1.042017 2.033745,1.680541 3.411896,2.218356 1.058824,0.403362 2.621652,0.890691 5.512409,1.025145 3.12605,0.134454 4.067358,0.168067 11.983324,0.168067 7.915966,0 8.857274,-0.03361 11.983324,-0.168067 2.890757,-0.134454 4.470392,-0.621783 5.512409,-1.025145 1.394958,-0.537815 2.369879,-1.176339 3.411896,-2.218356 1.042016,-1.042017 1.680541,-2.033744 2.218356,-3.411896 0.403361,-1.058823 0.890691,-2.621651 1.025144,-5.512408 0.134454,-3.12605 0.168068,-4.067357 0.168068,-11.983323 0,-7.915966 -0.03361,-8.857274 -0.168068,-11.983324 C 74.016676,35.125923 73.529346,33.546288 73.125985,32.504271 72.58817,31.12612 71.949645,30.134392 70.907629,29.092375 69.865612,28.050359 68.873884,27.411834 67.495733,26.874019 66.436909,26.470658 64.874081,25.983328 61.983324,25.848875 58.857274,25.714421 57.915966,25.680807 50,25.680807 Z m 18.487395,4.924173 c 1.966386,0 3.563222,1.596835 3.563222,3.563222 0,1.966386 -1.596836,3.562894 -3.563222,3.562894 -1.966387,0 -3.562894,-1.596508 -3.562894,-3.562894 0,-1.966387 1.596507,-3.563222 3.562894,-3.563222 z M 50,34.773178 c 8.420168,0 15.226825,6.806657 15.226825,15.226825 0,8.403361 -6.806657,15.226824 -15.226825,15.226824 -8.403361,0 -15.226825,-6.806657 -15.226825,-15.226824 0,-8.403361 6.806657,-15.226825 15.226825,-15.226825 z m 0,5.344341 c -5.462185,0 -9.882484,4.420299 -9.882484,9.882484 0,5.462184 4.420299,9.882483 9.882484,9.882483 5.462185,0 9.882484,-4.420299 9.882484,-9.882483 0,-5.462185 -4.420299,-9.882484 -9.882484,-9.882484 z" />

</svg>
