<?xml version="1.0" encoding="UTF-8" standalone="no"?>
<svg
   xmlns:dc="http://purl.org/dc/elements/1.1/"
   xmlns:cc="http://creativecommons.org/ns#"
   xmlns:rdf="http://www.w3.org/1999/02/22-rdf-syntax-ns#"
   xmlns:svg="http://www.w3.org/2000/svg"
   xmlns="http://www.w3.org/2000/svg"
   xmlns:sodipodi="http://sodipodi.sourceforge.net/DTD/sodipodi-0.dtd"
   xmlns:inkscape="http://www.inkscape.org/namespaces/inkscape"
   enable-background="new 0 0 48 48"
   id="Layer_1"
   version="1.1"
   viewBox="0 0 100 100"
   xml:space="preserve"
   sodipodi:docname="Linkedin.svg"
   inkscape:version="1.0.1 (3bc2e813f5, 2020-09-07)"
   width="100"
   height="100"><metadata
     id="metadata11"><rdf:RDF><cc:Work
         rdf:about=""><dc:format>image/svg+xml</dc:format><dc:type
           rdf:resource="http://purl.org/dc/dcmitype/StillImage" /><dc:title></dc:title></cc:Work></rdf:RDF></metadata><defs
     id="defs9" /><sodipodi:namedview
     pagecolor="#ffffff"
     bordercolor="#666666"
     borderopacity="1"
     objecttolerance="10"
     gridtolerance="10"
     guidetolerance="10"
     inkscape:pageopacity="0"
     inkscape:pageshadow="2"
     inkscape:window-width="1366"
     inkscape:window-height="745"
     id="namedview7"
     showgrid="false"
     inkscape:zoom="4.2573722"
     inkscape:cx="43.917463"
     inkscape:cy="56.207725"
     inkscape:window-x="-8"
     inkscape:window-y="-8"
     inkscape:window-maximized="1"
     inkscape:current-layer="Layer_1"
     inkscape:document-rotation="0"
     inkscape:pagecheckerboard="true" /><path
     id="circle2"
     style="fill:#ff99cc;fill-opacity:1;stroke-width:2.08333"
     d="M 49.560546,4.8279955e-4 A 50,49.999759 0 0 0 3.7294587e-8,50.000242 50,49.999759 0 0 0 50,100 50,49.999759 0 0 0 100,50.000242 50,49.999759 0 0 0 50,4.8279955e-4 a 50,49.999759 0 0 0 -0.439454,0 z M 31.042481,27.083686 c 3.541667,0 5.830892,2.290841 5.830892,5.415826 0,3.124984 -2.080892,5.415828 -5.830892,5.415828 -3.541666,0 -5.834962,-2.290844 -5.834962,-5.415828 0,-3.124985 2.293296,-5.415826 5.834962,-5.415826 z M 62.5,41.251911 c 6.875,0 12.292481,4.373352 12.292481,13.956639 V 72.70928 H 63.749185 V 56.665249 c 0,-4.166646 -1.665852,-7.080045 -5.415852,-7.080045 -2.916666,0 -4.375,1.872549 -5.208333,3.74754 -0.208333,0.624997 -0.207519,1.669101 -0.207519,2.50243 V 72.50176 H 42.081706 c 0,0 0.208334,-28.334824 0,-30.834811 h 10.835775 v 4.79327 c 0.625,-2.083323 4.165852,-5.208308 9.582519,-5.208308 z m -35.831706,0.622555 h 9.582521 V 72.70928 h -9.582521 z" /></svg>
