<?xml version="1.0" encoding="UTF-8" standalone="no"?>
<svg
   xmlns:dc="http://purl.org/dc/elements/1.1/"
   xmlns:cc="http://creativecommons.org/ns#"
   xmlns:rdf="http://www.w3.org/1999/02/22-rdf-syntax-ns#"
   xmlns:svg="http://www.w3.org/2000/svg"
   xmlns="http://www.w3.org/2000/svg"
   xmlns:sodipodi="http://sodipodi.sourceforge.net/DTD/sodipodi-0.dtd"
   xmlns:inkscape="http://www.inkscape.org/namespaces/inkscape"
   enable-background="new 0 0 48 48"
   id="Layer_1"
   version="1.1"
   viewBox="0 0 48 48"
   xml:space="preserve"
   sodipodi:docname="Linkedin.svg"
   inkscape:version="1.0.1 (3bc2e813f5, 2020-09-07)"><metadata
     id="metadata11"><rdf:RDF><cc:Work
         rdf:about=""><dc:format>image/svg+xml</dc:format><dc:type
           rdf:resource="http://purl.org/dc/dcmitype/StillImage" /></cc:Work></rdf:RDF></metadata><defs
     id="defs9" /><sodipodi:namedview
     pagecolor="#ffffff"
     bordercolor="#666666"
     borderopacity="1"
     objecttolerance="10"
     gridtolerance="10"
     guidetolerance="10"
     inkscape:pageopacity="0"
     inkscape:pageshadow="2"
     inkscape:window-width="1366"
     inkscape:window-height="745"
     id="namedview7"
     showgrid="false"
     inkscape:zoom="12.041667"
     inkscape:cx="24"
     inkscape:cy="24"
     inkscape:window-x="-8"
     inkscape:window-y="-8"
     inkscape:window-maximized="1"
     inkscape:current-layer="Layer_1"
     inkscape:document-rotation="0" /><path
     id="circle2"
     style="fill:#ff99cc;fill-opacity:1"
     d="M 23.789062 0 A 24 24 0 0 0 0 24 A 24 24 0 0 0 24 48 A 24 24 0 0 0 48 24 A 24 24 0 0 0 24 0 A 24 24 0 0 0 23.789062 0 z M 14.900391 13 C 16.600391 13 17.699219 14.099609 17.699219 15.599609 C 17.699219 17.099609 16.700391 18.199219 14.900391 18.199219 C 13.200391 18.199219 12.099609 17.099609 12.099609 15.599609 C 12.099609 14.099609 13.200391 13 14.900391 13 z M 30 19.800781 C 33.3 19.800781 35.900391 21.9 35.900391 26.5 L 35.900391 34.900391 L 30.599609 34.900391 L 30.599609 27.199219 C 30.599609 25.199219 29.8 23.800781 28 23.800781 C 26.6 23.800781 25.9 24.699609 25.5 25.599609 C 25.4 25.899609 25.400391 26.400781 25.400391 26.800781 L 25.400391 34.800781 L 20.199219 34.800781 C 20.199219 34.800781 20.299219 21.2 20.199219 20 L 25.400391 20 L 25.400391 22.300781 C 25.700391 21.300781 27.4 19.800781 30 19.800781 z M 12.800781 20.099609 L 17.400391 20.099609 L 17.400391 34.900391 L 12.800781 34.900391 L 12.800781 20.099609 z " /></svg>
