<?xml version="1.0" encoding="UTF-8" standalone="no"?>
<svg
   xmlns:dc="http://purl.org/dc/elements/1.1/"
   xmlns:cc="http://creativecommons.org/ns#"
   xmlns:rdf="http://www.w3.org/1999/02/22-rdf-syntax-ns#"
   xmlns:svg="http://www.w3.org/2000/svg"
   xmlns="http://www.w3.org/2000/svg"
   xmlns:sodipodi="http://sodipodi.sourceforge.net/DTD/sodipodi-0.dtd"
   xmlns:inkscape="http://www.inkscape.org/namespaces/inkscape"
   version="1.1"
   id="White"
   x="0px"
   y="0px"
   viewBox="0 0 100 100"
   xml:space="preserve"
   sodipodi:docname="Twitter.svg"
   inkscape:version="1.0.1 (3bc2e813f5, 2020-09-07)"
   width="100"
   height="100"><metadata
   id="metadata11"><rdf:RDF><cc:Work
       rdf:about=""><dc:format>image/svg+xml</dc:format><dc:type
         rdf:resource="http://purl.org/dc/dcmitype/StillImage" /><dc:title></dc:title></cc:Work></rdf:RDF></metadata><defs
   id="defs9" /><sodipodi:namedview
   pagecolor="#ffffff"
   bordercolor="#666666"
   borderopacity="1"
   objecttolerance="10"
   gridtolerance="10"
   guidetolerance="10"
   inkscape:pageopacity="0"
   inkscape:pageshadow="2"
   inkscape:window-width="1366"
   inkscape:window-height="745"
   id="namedview7"
   showgrid="false"
   inkscape:zoom="4.0870772"
   inkscape:cx="51.725823"
   inkscape:cy="50.03821"
   inkscape:window-x="-8"
   inkscape:window-y="-8"
   inkscape:window-maximized="1"
   inkscape:current-layer="White"
   inkscape:document-rotation="0"
   inkscape:pagecheckerboard="true" />
<style
   type="text/css"
   id="style2">
	.st0{fill:#FFFFFF;}
</style>
<path
   class="st0"
   d="M 100,50 C 100,77.625 77.625,100 50,100 22.375,100 0,77.625 0,50 0,22.375 22.375,0 50,0 77.625,0 100,22.375 100,50 Z M 40.85,76.375 c 22.175,0 34.3,-18.375 34.3,-34.3 0,-0.525 0,-1.05 -0.025,-1.55 2.35,-1.7 4.4,-3.825 6.025,-6.25 -2.15,0.95 -4.475,1.6 -6.925,1.9 2.5,-1.5 4.4,-3.85 5.3,-6.675 -2.325,1.375 -4.9,2.375 -7.65,2.925 -2.2,-2.35 -5.325,-3.8 -8.8,-3.8 -6.65,0 -12.05,5.4 -12.05,12.05 0,0.95 0.1,1.875 0.325,2.75 -10.025,-0.5 -18.9,-5.3 -24.85,-12.6 -1.025,1.775 -1.625,3.85 -1.625,6.05 0,4.175 2.125,7.875 5.375,10.025 -1.975,-0.05 -3.825,-0.6 -5.45,-1.5 0,0.05 0,0.1 0,0.15 0,5.85 4.15,10.7 9.675,11.825 -1,0.275 -2.075,0.425 -3.175,0.425 -0.775,0 -1.525,-0.075 -2.275,-0.225 1.525,4.8 5.975,8.275 11.25,8.375 -4.125,3.225 -9.325,5.15 -14.975,5.15 -0.975,0 -1.925,-0.05 -2.875,-0.175 5.275,3.45 11.625,5.45 18.425,5.45"
   id="path4"
   style="fill:#ff99cc;fill-opacity:1;stroke-width:0.25" />
</svg>
